<svg xmlns="http://www.w3.org/2000/svg" xmlns:xlink="http://www.w3.org/1999/xlink" contentStyleType="text/css" height="876px" preserveAspectRatio="none" style="width:653px;height:876px;background:#FFFFFF;" version="1.1" viewBox="0 0 653 876" width="653px" zoomAndPan="magnify"><defs/><g><ellipse cx="381.75" cy="20" fill="#222222" rx="10" ry="10" style="stroke:#222222;stroke-width:1.0;"/><rect fill="#F1F1F1" height="33.9688" rx="12.5" ry="12.5" style="stroke:#181818;stroke-width:0.5;" width="210" x="276.75" y="50"/><text fill="#000000" font-family="sans-serif" font-size="12" lengthAdjust="spacing" textLength="190" x="286.75" y="71.1387">Crear directorio de instalaci&#243;n</text><polygon fill="#F1F1F1" points="320.75,103.9688,442.75,103.9688,454.75,115.9688,442.75,127.9688,320.75,127.9688,308.75,115.9688,320.75,103.9688" style="stroke:#181818;stroke-width:0.5;"/><text fill="#000000" font-family="sans-serif" font-size="11" lengthAdjust="spacing" textLength="122" x="320.75" y="119.7769">&#191;Directorio ya existe?</text><text fill="#000000" font-family="sans-serif" font-size="11" lengthAdjust="spacing" textLength="11" x="297.75" y="113.3745">S&#237;</text><text fill="#000000" font-family="sans-serif" font-size="11" lengthAdjust="spacing" textLength="15" x="454.75" y="113.3745">No</text><rect fill="#F1F1F1" height="33.9688" rx="12.5" ry="12.5" style="stroke:#181818;stroke-width:0.5;" width="146" x="153.5" y="137.9688"/><text fill="#000000" font-family="sans-serif" font-size="12" lengthAdjust="spacing" textLength="126" x="163.5" y="159.1074">Mostrar advertencia</text><polygon fill="#F1F1F1" points="135.5,191.9375,317.5,191.9375,329.5,203.9375,317.5,215.9375,135.5,215.9375,123.5,203.9375,135.5,191.9375" style="stroke:#181818;stroke-width:0.5;"/><text fill="#000000" font-family="sans-serif" font-size="11" lengthAdjust="spacing" textLength="182" x="135.5" y="207.7456">&#191;Reinstalaci&#243;n forzada (--force)?</text><text fill="#000000" font-family="sans-serif" font-size="11" lengthAdjust="spacing" textLength="11" x="112.5" y="201.3433">S&#237;</text><text fill="#000000" font-family="sans-serif" font-size="11" lengthAdjust="spacing" textLength="15" x="329.5" y="201.3433">No</text><rect fill="#F1F1F1" height="33.9688" rx="12.5" ry="12.5" style="stroke:#181818;stroke-width:0.5;" width="205" x="11" y="225.9375"/><text fill="#000000" font-family="sans-serif" font-size="12" lengthAdjust="spacing" textLength="185" x="21" y="247.0762">Desinstalar instalaci&#243;n previa</text><rect fill="#F1F1F1" height="33.9688" rx="12.5" ry="12.5" style="stroke:#181818;stroke-width:0.5;" width="129" x="49" y="279.9063"/><text fill="#000000" font-family="sans-serif" font-size="12" lengthAdjust="spacing" textLength="109" x="59" y="301.0449">Reinstalar scripts</text><rect fill="#F1F1F1" height="33.9688" rx="12.5" ry="12.5" style="stroke:#181818;stroke-width:0.5;" width="125" x="277" y="225.9375"/><text fill="#000000" font-family="sans-serif" font-size="12" lengthAdjust="spacing" textLength="105" x="287" y="247.0762">Salir del proceso</text><ellipse cx="339.5" cy="290.9063" fill="none" rx="11" ry="11" style="stroke:#222222;stroke-width:1.0;"/><ellipse cx="339.5" cy="290.9063" fill="#222222" rx="6" ry="6" style="stroke:#222222;stroke-width:1.0;"/><rect fill="#F1F1F1" height="33.9688" rx="12.5" ry="12.5" style="stroke:#181818;stroke-width:0.5;" width="210" x="432" y="137.9688"/><text fill="#000000" font-family="sans-serif" font-size="12" lengthAdjust="spacing" textLength="190" x="442" y="159.1074">Crear directorio de instalaci&#243;n</text><polygon fill="#F1F1F1" points="381.75,323.875,393.75,335.875,381.75,347.875,369.75,335.875,381.75,323.875" style="stroke:#181818;stroke-width:0.5;"/><rect fill="#F1F1F1" height="33.9688" rx="12.5" ry="12.5" style="stroke:#181818;stroke-width:0.5;" width="277" x="243.25" y="367.875"/><text fill="#000000" font-family="sans-serif" font-size="12" lengthAdjust="spacing" textLength="257" x="253.25" y="389.0137">Copiar scripts al directorio de instalaci&#243;n</text><rect fill="#F1F1F1" height="33.9688" rx="12.5" ry="12.5" style="stroke:#181818;stroke-width:0.5;" width="358" x="202.75" y="421.8438"/><text fill="#000000" font-family="sans-serif" font-size="12" lengthAdjust="spacing" textLength="338" x="212.75" y="442.9824">Agregar fechas de creaci&#243;n e instalaci&#243;n a los scripts</text><rect fill="#F1F1F1" height="33.9688" rx="12.5" ry="12.5" style="stroke:#181818;stroke-width:0.5;" width="293" x="235.25" y="475.8125"/><text fill="#000000" font-family="sans-serif" font-size="12" lengthAdjust="spacing" textLength="273" x="245.25" y="496.9512">Otorgar permisos de ejecuci&#243;n a los scripts</text><polygon fill="#F1F1F1" points="298.75,529.7813,464.75,529.7813,476.75,541.7813,464.75,553.7813,298.75,553.7813,286.75,541.7813,298.75,529.7813" style="stroke:#181818;stroke-width:0.5;"/><text fill="#000000" font-family="sans-serif" font-size="11" lengthAdjust="spacing" textLength="166" x="298.75" y="545.5894">&#191;Alias ya existen en .bashrc?</text><text fill="#000000" font-family="sans-serif" font-size="11" lengthAdjust="spacing" textLength="11" x="275.75" y="539.187">S&#237;</text><text fill="#000000" font-family="sans-serif" font-size="11" lengthAdjust="spacing" textLength="15" x="476.75" y="539.187">No</text><rect fill="#F1F1F1" height="33.9688" rx="12.5" ry="12.5" style="stroke:#181818;stroke-width:0.5;" width="268" x="131.25" y="563.7813"/><text fill="#000000" font-family="sans-serif" font-size="12" lengthAdjust="spacing" textLength="248" x="141.25" y="584.9199">Mostrar advertencia de alias existentes</text><rect fill="#F1F1F1" height="33.9688" rx="12.5" ry="12.5" style="stroke:#181818;stroke-width:0.5;" width="158" x="419.25" y="563.7813"/><text fill="#000000" font-family="sans-serif" font-size="12" lengthAdjust="spacing" textLength="138" x="429.25" y="584.9199">Crear alias en .bashrc</text><polygon fill="#F1F1F1" points="381.75,603.75,393.75,615.75,381.75,627.75,369.75,615.75,381.75,603.75" style="stroke:#181818;stroke-width:0.5;"/><rect fill="#F1F1F1" height="33.9688" rx="12.5" ry="12.5" style="stroke:#181818;stroke-width:0.5;" width="180" x="291.75" y="647.75"/><text fill="#000000" font-family="sans-serif" font-size="12" lengthAdjust="spacing" textLength="160" x="301.75" y="668.8887">Actualizar archivo .bashrc</text><rect fill="#F1F1F1" height="33.9688" rx="12.5" ry="12.5" style="stroke:#181818;stroke-width:0.5;" width="179" x="292.25" y="701.7188"/><text fill="#000000" font-family="sans-serif" font-size="12" lengthAdjust="spacing" textLength="159" x="302.25" y="722.8574">Mostrar mensaje de &#233;xito</text><polygon fill="#F1F1F1" points="297.25,755.6875,466.25,755.6875,478.25,767.6875,466.25,779.6875,297.25,779.6875,285.25,767.6875,297.25,755.6875" style="stroke:#181818;stroke-width:0.5;"/><text fill="#000000" font-family="sans-serif" font-size="11" lengthAdjust="spacing" textLength="169" x="297.25" y="771.4956">&#191;Abrir carpeta de instalaci&#243;n?</text><text fill="#000000" font-family="sans-serif" font-size="11" lengthAdjust="spacing" textLength="11" x="274.25" y="765.0933">S&#237;</text><text fill="#000000" font-family="sans-serif" font-size="11" lengthAdjust="spacing" textLength="15" x="478.25" y="765.0933">No</text><rect fill="#F1F1F1" height="33.9688" rx="12.5" ry="12.5" style="stroke:#181818;stroke-width:0.5;" width="194" x="178.25" y="789.6875"/><text fill="#000000" font-family="sans-serif" font-size="12" lengthAdjust="spacing" textLength="174" x="188.25" y="810.8262">Abrir carpeta de instalaci&#243;n</text><ellipse cx="275.25" cy="854.6563" fill="none" rx="11" ry="11" style="stroke:#222222;stroke-width:1.0;"/><ellipse cx="275.25" cy="854.6563" fill="#222222" rx="6" ry="6" style="stroke:#222222;stroke-width:1.0;"/><rect fill="#F1F1F1" height="33.9688" rx="12.5" ry="12.5" style="stroke:#181818;stroke-width:0.5;" width="142" x="417.25" y="789.6875"/><text fill="#000000" font-family="sans-serif" font-size="12" lengthAdjust="spacing" textLength="122" x="427.25" y="810.8262">Finalizar instalaci&#243;n</text><ellipse cx="488.25" cy="854.6563" fill="none" rx="11" ry="11" style="stroke:#222222;stroke-width:1.0;"/><ellipse cx="488.25" cy="854.6563" fill="#222222" rx="6" ry="6" style="stroke:#222222;stroke-width:1.0;"/><line style="stroke:#181818;stroke-width:1.0;" x1="381.75" x2="381.75" y1="30" y2="50"/><polygon fill="#181818" points="377.75,40,381.75,50,385.75,40,381.75,44" style="stroke:#181818;stroke-width:1.0;"/><line style="stroke:#181818;stroke-width:1.0;" x1="113.5" x2="113.5" y1="259.9063" y2="279.9063"/><polygon fill="#181818" points="109.5,269.9063,113.5,279.9063,117.5,269.9063,113.5,273.9063" style="stroke:#181818;stroke-width:1.0;"/><line style="stroke:#181818;stroke-width:1.0;" x1="339.5" x2="339.5" y1="259.9063" y2="279.9063"/><polygon fill="#181818" points="335.5,269.9063,339.5,279.9063,343.5,269.9063,339.5,273.9063" style="stroke:#181818;stroke-width:1.0;"/><line style="stroke:#181818;stroke-width:1.0;" x1="123.5" x2="113.5" y1="203.9375" y2="203.9375"/><line style="stroke:#181818;stroke-width:1.0;" x1="113.5" x2="113.5" y1="203.9375" y2="225.9375"/><polygon fill="#181818" points="109.5,215.9375,113.5,225.9375,117.5,215.9375,113.5,219.9375" style="stroke:#181818;stroke-width:1.0;"/><line style="stroke:#181818;stroke-width:1.0;" x1="329.5" x2="339.5" y1="203.9375" y2="203.9375"/><line style="stroke:#181818;stroke-width:1.0;" x1="339.5" x2="339.5" y1="203.9375" y2="225.9375"/><polygon fill="#181818" points="335.5,215.9375,339.5,225.9375,343.5,215.9375,339.5,219.9375" style="stroke:#181818;stroke-width:1.0;"/><line style="stroke:#181818;stroke-width:1.0;" x1="113.5" x2="113.5" y1="313.875" y2="335.875"/><line style="stroke:#181818;stroke-width:1.0;" x1="113.5" x2="369.75" y1="335.875" y2="335.875"/><polygon fill="#181818" points="359.75,331.875,369.75,335.875,359.75,339.875,363.75,335.875" style="stroke:#181818;stroke-width:1.0;"/><line style="stroke:#181818;stroke-width:1.0;" x1="226.5" x2="226.5" y1="171.9375" y2="191.9375"/><polygon fill="#181818" points="222.5,181.9375,226.5,191.9375,230.5,181.9375,226.5,185.9375" style="stroke:#181818;stroke-width:1.0;"/><line style="stroke:#181818;stroke-width:1.0;" x1="308.75" x2="226.5" y1="115.9688" y2="115.9688"/><line style="stroke:#181818;stroke-width:1.0;" x1="226.5" x2="226.5" y1="115.9688" y2="137.9688"/><polygon fill="#181818" points="222.5,127.9688,226.5,137.9688,230.5,127.9688,226.5,131.9688" style="stroke:#181818;stroke-width:1.0;"/><line style="stroke:#181818;stroke-width:1.0;" x1="454.75" x2="537" y1="115.9688" y2="115.9688"/><line style="stroke:#181818;stroke-width:1.0;" x1="537" x2="537" y1="115.9688" y2="137.9688"/><polygon fill="#181818" points="533,127.9688,537,137.9688,541,127.9688,537,131.9688" style="stroke:#181818;stroke-width:1.0;"/><line style="stroke:#181818;stroke-width:1.0;" x1="537" x2="537" y1="171.9375" y2="335.875"/><line style="stroke:#181818;stroke-width:1.0;" x1="537" x2="393.75" y1="335.875" y2="335.875"/><polygon fill="#181818" points="403.75,331.875,393.75,335.875,403.75,339.875,399.75,335.875" style="stroke:#181818;stroke-width:1.0;"/><line style="stroke:#181818;stroke-width:1.0;" x1="381.75" x2="381.75" y1="83.9688" y2="103.9688"/><polygon fill="#181818" points="377.75,93.9688,381.75,103.9688,385.75,93.9688,381.75,97.9688" style="stroke:#181818;stroke-width:1.0;"/><line style="stroke:#181818;stroke-width:1.0;" x1="381.75" x2="381.75" y1="347.875" y2="367.875"/><polygon fill="#181818" points="377.75,357.875,381.75,367.875,385.75,357.875,381.75,361.875" style="stroke:#181818;stroke-width:1.0;"/><line style="stroke:#181818;stroke-width:1.0;" x1="381.75" x2="381.75" y1="401.8438" y2="421.8438"/><polygon fill="#181818" points="377.75,411.8438,381.75,421.8438,385.75,411.8438,381.75,415.8438" style="stroke:#181818;stroke-width:1.0;"/><line style="stroke:#181818;stroke-width:1.0;" x1="381.75" x2="381.75" y1="455.8125" y2="475.8125"/><polygon fill="#181818" points="377.75,465.8125,381.75,475.8125,385.75,465.8125,381.75,469.8125" style="stroke:#181818;stroke-width:1.0;"/><line style="stroke:#181818;stroke-width:1.0;" x1="286.75" x2="265.25" y1="541.7813" y2="541.7813"/><line style="stroke:#181818;stroke-width:1.0;" x1="265.25" x2="265.25" y1="541.7813" y2="563.7813"/><polygon fill="#181818" points="261.25,553.7813,265.25,563.7813,269.25,553.7813,265.25,557.7813" style="stroke:#181818;stroke-width:1.0;"/><line style="stroke:#181818;stroke-width:1.0;" x1="476.75" x2="498.25" y1="541.7813" y2="541.7813"/><line style="stroke:#181818;stroke-width:1.0;" x1="498.25" x2="498.25" y1="541.7813" y2="563.7813"/><polygon fill="#181818" points="494.25,553.7813,498.25,563.7813,502.25,553.7813,498.25,557.7813" style="stroke:#181818;stroke-width:1.0;"/><line style="stroke:#181818;stroke-width:1.0;" x1="265.25" x2="265.25" y1="597.75" y2="615.75"/><line style="stroke:#181818;stroke-width:1.0;" x1="265.25" x2="369.75" y1="615.75" y2="615.75"/><polygon fill="#181818" points="359.75,611.75,369.75,615.75,359.75,619.75,363.75,615.75" style="stroke:#181818;stroke-width:1.0;"/><line style="stroke:#181818;stroke-width:1.0;" x1="498.25" x2="498.25" y1="597.75" y2="615.75"/><line style="stroke:#181818;stroke-width:1.0;" x1="498.25" x2="393.75" y1="615.75" y2="615.75"/><polygon fill="#181818" points="403.75,611.75,393.75,615.75,403.75,619.75,399.75,615.75" style="stroke:#181818;stroke-width:1.0;"/><line style="stroke:#181818;stroke-width:1.0;" x1="381.75" x2="381.75" y1="509.7813" y2="529.7813"/><polygon fill="#181818" points="377.75,519.7813,381.75,529.7813,385.75,519.7813,381.75,523.7813" style="stroke:#181818;stroke-width:1.0;"/><line style="stroke:#181818;stroke-width:1.0;" x1="381.75" x2="381.75" y1="627.75" y2="647.75"/><polygon fill="#181818" points="377.75,637.75,381.75,647.75,385.75,637.75,381.75,641.75" style="stroke:#181818;stroke-width:1.0;"/><line style="stroke:#181818;stroke-width:1.0;" x1="381.75" x2="381.75" y1="681.7188" y2="701.7188"/><polygon fill="#181818" points="377.75,691.7188,381.75,701.7188,385.75,691.7188,381.75,695.7188" style="stroke:#181818;stroke-width:1.0;"/><line style="stroke:#181818;stroke-width:1.0;" x1="275.25" x2="275.25" y1="823.6563" y2="843.6563"/><polygon fill="#181818" points="271.25,833.6563,275.25,843.6563,279.25,833.6563,275.25,837.6563" style="stroke:#181818;stroke-width:1.0;"/><line style="stroke:#181818;stroke-width:1.0;" x1="488.25" x2="488.25" y1="823.6563" y2="843.6563"/><polygon fill="#181818" points="484.25,833.6563,488.25,843.6563,492.25,833.6563,488.25,837.6563" style="stroke:#181818;stroke-width:1.0;"/><line style="stroke:#181818;stroke-width:1.0;" x1="285.25" x2="275.25" y1="767.6875" y2="767.6875"/><line style="stroke:#181818;stroke-width:1.0;" x1="275.25" x2="275.25" y1="767.6875" y2="789.6875"/><polygon fill="#181818" points="271.25,779.6875,275.25,789.6875,279.25,779.6875,275.25,783.6875" style="stroke:#181818;stroke-width:1.0;"/><line style="stroke:#181818;stroke-width:1.0;" x1="478.25" x2="488.25" y1="767.6875" y2="767.6875"/><line style="stroke:#181818;stroke-width:1.0;" x1="488.25" x2="488.25" y1="767.6875" y2="789.6875"/><polygon fill="#181818" points="484.25,779.6875,488.25,789.6875,492.25,779.6875,488.25,783.6875" style="stroke:#181818;stroke-width:1.0;"/><line style="stroke:#181818;stroke-width:1.0;" x1="381.75" x2="381.75" y1="735.6875" y2="755.6875"/><polygon fill="#181818" points="377.75,745.6875,381.75,755.6875,385.75,745.6875,381.75,749.6875" style="stroke:#181818;stroke-width:1.0;"/><!--SRC=[ZP51Ri9034NtEOMNOK4F41OLAkgkhLHEO2OECHfc8i-0A3VgegiUe5AvM3qaIe0Yn2xAlF-_xHyYIioouaa81KeMCj4BUoW9s8M85WqVljqaumhotv_PG7mWq8v3fCSHn9eSvFF3roW3A5vyYA9sM6v98Zd3ED7_hSCxdVf2vMMF9K8-7kkdeT6bc_hDA7GQEHiA6g5jwwrKRomGZ70JGteW6mZoLzzPpT6oxabMjTvGyAquHDyas9LSPQUIEmxJYlI4lk4X6z3UL1NJfT1I-OfCZI41HgFQlSvXGB0-34iLR-gPf0t9ceC_Ycb5PdCLxvgRMjQOlZGDSV2mm52BkQV0b857YquVIRsldAg3UlFXG5CJD_gwJv2OchT-OFh8DRc0AqfnXyyTHpyii12jpg0q5F7oeFzMk4cdqe-Ldyt_pAuRxpgRrlW3]--></g></svg>